# xmcd CD database file
#
# Track frame offsets:
#	150
#	12488
#	32476
#	60601
#	82902
#	96332
#	121607
#	139076
#	155592
#	170513
#	191796
#	207197
#	219989
#
# Disc length: 3675 seconds
#
# Revision: 0
# Processed by: cddbd v1.5.2PL0 Copyright (c) Steve Scherf et al.
# Submitted via: CDex 1.51
#
DISCID=ab0e590d
DTITLE=Rev. Robert B. Jones, Sr. - At The Crossroads
DYEAR=2007
DGENRE=Blues
TTITLE0=No More
TTITLE1=Crossroads
TTITLE2=Arnesia's Song
TTITLE3=The Darkness Of Blackness
TTITLE4=When I Was On A Chain Gang
TTITLE5=Crucifixion
TTITLE6=I Wrestled With The Angel
TTITLE7=His Blood Can Make You Whole
TTITLE8=Serious Road
TTITLE9=Death Letter Blues
TTITLE10=Nobody's Fault But Mine
TTITLE11=Jesus Gonna Make Up My Dying Bed
TTITLE12=I Can't Play Like BB King
EXTD=YEAR: 2007
EXTT0=
EXTT1=
EXTT2=
EXTT3=
EXTT4=
EXTT5=
EXTT6=
EXTT7=
EXTT8=
EXTT9=
EXTT10=
EXTT11=
EXTT12=
PLAYORDER=
